HIERARCHY
ROOT hip
{
	OFFSET 0.000000 0.000000 0.000000 
	CHANNELS 6 Xposition Yposition Zposition Xrotation Zrotation Yrotation
	JOINT abdomen
	{
		OFFSET 0.000000 3.402643 0.000000 
		CHANNELS 3 Xrotation Zrotation Yrotation
		JOINT chest
		{
			OFFSET 0.000000 8.438565 -0.680529 
			CHANNELS 3 Xrotation Zrotation Yrotation
			JOINT neck
			{
				OFFSET 0.000000 10.207942 -0.272212 
				CHANNELS 3 Xrotation Zrotation Yrotation
				JOINT head
				{
					OFFSET 0.000000 3.130431 0.000000 
					CHANNELS 3 Xrotation Zrotation Yrotation
					End Site
					{
						OFFSET 0.000000 3.130435 0.000000 
					}
				}
			}
			JOINT lCollar
			{
				OFFSET 3.470700 6.669187 -0.816635 
				CHANNELS 3 Yrotation Zrotation Xrotation
				JOINT lShldr
				{
					OFFSET 3.198488 0.000000 0.000000 
					CHANNELS 3 Zrotation Yrotation Xrotation
					JOINT lForeArm
					{
						OFFSET 10.139888 0.000000 0.000000 
						CHANNELS 3 Yrotation Zrotation Xrotation
						JOINT lHand
						{
							OFFSET 8.370511 0.000000 0.000000 
							CHANNELS 3 Zrotation Yrotation Xrotation
							End Site
							{
								OFFSET 4.083176 0.000000 0.000000 
							}
						}
					}
				}
			}
			JOINT rCollar
			{
				OFFSET -3.470700 6.669187 -0.816635 
				CHANNELS 3 Yrotation Zrotation Xrotation
				JOINT rShldr
				{
					OFFSET -3.198488 0.000000 0.000000 
					CHANNELS 3 Zrotation Yrotation Xrotation
					JOINT rForeArm
					{
						OFFSET -10.139888 0.000000 0.000000 
						CHANNELS 3 Yrotation Zrotation Xrotation
						JOINT rHand
						{
							OFFSET -8.370511 0.000000 0.000000 
							CHANNELS 3 Zrotation Yrotation Xrotation
							End Site
							{
								OFFSET -4.083176 0.000000 0.000000 
							}
						}
					}
				}
			}
		}
	}
	JOINT lThigh
	{
		OFFSET 5.308129 -1.633274 1.361059 
		CHANNELS 3 Xrotation Zrotation Yrotation
		JOINT lShin
		{
			OFFSET -2.041588 -20.007561 0.000000 
			CHANNELS 3 Xrotation Zrotation Yrotation
			JOINT lFoot
			{
				OFFSET 0.000000 -19.190928 -1.224953 
				CHANNELS 3 Xrotation Yrotation Zrotation
				End Site
				{
					OFFSET 0.000000 -2.449906 4.627600 
				}
			}
		}
	}
	JOINT rThigh
	{
		OFFSET -5.308129 -1.633274 1.361059 
		CHANNELS 3 Xrotation Zrotation Yrotation
		JOINT rShin
		{
			OFFSET 2.041588 -20.007561 0.000000 
			CHANNELS 3 Xrotation Zrotation Yrotation
			JOINT rFoot
			{
				OFFSET 0.000000 -19.190928 -1.224953 
				CHANNELS 3 Xrotation Yrotation Zrotation
				End Site
				{
					OFFSET 0.000000 -2.449906 4.627600 
				}
			}
		}
	}
}
MOTION
Frames: 6
Frame Time: 0.033333
1.087043 44.374813 8.662297 -1.955710 5.294170 7.499110 0.000000 0.000000 0.000000 40.152802 -14.121800 -10.762000 -28.551001 16.289301 -7.720270 -11.560700 22.094999 -3.779120 19.424690 28.567728 -22.818268 22.601299 -63.084400 -123.737999 -120.919998 -4.531940 8.246860 10.451600 -5.584250 -18.401400 0.127026 1.943355 -13.461667 67.263603 -6.076490 -40.401798 7.319210 -24.520901 -2.821090 53.766701 -46.889000 -83.554100 -5.721139 -3.915208 12.357520 16.284538 -3.118267 -13.936571 -0.185020 -2.737779 3.472495 -25.054964 -6.101556 -18.507143 49.614044 -8.025180 14.028228 -1.718206 -8.231106 -3.655874 
0.782311 45.122593 8.870864 0.652633 2.548900 8.967170 0.000000 0.000000 0.000000 38.036598 -13.380100 -10.976800 -26.237000 21.521299 -6.927740 -17.923100 16.567699 -4.103200 17.974478 28.774364 -20.176779 23.192600 -59.923302 -127.262001 -121.328003 -4.349240 8.199630 10.239500 -5.235650 -19.448200 -1.459718 4.568836 -14.571571 60.133499 -11.687900 -44.200600 13.028500 -25.555599 -3.159230 52.869598 -48.661701 -83.732903 -7.267722 -1.017144 13.424500 13.144620 -3.342662 -13.125696 3.275074 -5.048621 3.333528 -21.617414 -2.898656 -18.443106 35.974758 -3.309928 15.025858 2.700327 -7.903559 -3.937971 
0.546261 45.379513 9.191456 1.869720 0.774553 9.223590 0.000000 0.000000 0.000000 34.714401 -13.298300 -11.341900 -17.010900 25.189800 -3.224120 -22.268999 11.092100 -2.646780 14.891487 29.159752 -15.283532 20.837799 -57.286400 -127.290001 -121.398003 -4.108330 8.111650 8.083150 -4.829200 -20.704201 -3.975363 7.043729 -13.359491 51.433102 -13.870600 -42.956200 19.375900 -27.937500 -0.615898 51.375900 -46.784000 -81.130798 -8.229630 0.868096 15.051848 12.645862 -3.254653 -12.627170 4.285959 -5.540431 3.231033 -17.576075 -0.536979 -16.893068 25.419685 0.131093 13.960086 5.819228 -6.830776 -3.933972 
0.401277 45.255108 9.547916 1.402190 -0.176122 7.957390 0.000000 0.000000 0.000000 31.169901 -13.580700 -11.679200 -3.297700 25.106501 2.423540 -24.715401 7.110290 -0.407228 11.340907 29.513214 -10.177190 15.300900 -55.114498 -122.732002 -121.232002 -3.785290 8.088800 4.980560 -4.878800 -21.671000 -7.059014 7.870338 -10.553134 42.668900 -11.969500 -39.124802 26.518101 -30.081200 5.080890 48.758301 -41.847500 -76.390099 -8.025988 2.001349 16.115358 14.298751 -2.854588 -11.661457 2.686606 -4.202321 2.649538 -13.943562 0.840065 -15.210502 20.548700 1.583234 13.538458 5.501693 -5.493523 -3.612657 
0.351409 44.860779 9.889750 -0.518257 -0.804999 5.050300 0.000000 0.000000 0.000000 28.260099 -13.509500 -11.730300 10.019700 20.980301 7.580060 -25.066601 4.115080 2.013660 8.755997 29.710014 -6.808474 7.628450 -52.492298 -114.227997 -121.070999 -3.420830 7.858820 2.012610 -5.309590 -21.910500 -9.565459 6.048181 -7.371965 35.680302 -6.986390 -35.341202 34.605499 -30.498400 13.035400 45.277100 -35.834900 -71.183197 -7.044095 2.884525 16.519693 18.239214 -2.220498 -9.949134 -1.113314 -2.035932 1.836469 -10.538062 1.641725 -14.190917 19.789070 1.739208 15.322555 2.483616 -4.300076 -2.975199 
0.368842 44.246410 10.193771 -3.209170 -1.528080 0.837014 0.000000 0.000000 0.000000 26.291100 -12.720900 -11.413700 19.949800 14.820100 10.964700 -23.919600 0.774860 4.390360 7.735130 29.773741 -5.855406 0.268187 -48.369202 -104.510002 -121.165001 -3.059730 7.091520 -0.205806 -5.640990 -21.414200 -10.690672 2.072795 -4.579741 30.729200 -0.473283 -32.976101 43.457802 -28.993299 21.854099 41.737598 -31.295500 -67.150002 -6.315481 3.892887 17.233688 24.908283 -1.450693 -8.303077 -6.326094 0.049788 1.696959 -7.571063 2.334071 -13.733949 21.350473 1.046802 19.011274 -2.291480 -3.467960 -3.552025 
